<?xml version="1.0" encoding="UTF-8" standalone="no"?>
<!DOCTYPE svg PUBLIC "-//W3C//DTD SVG 1.1//EN" "http://www.w3.org/Graphics/SVG/1.1/DTD/svg11.dtd">
<svg width="100%" height="100%" viewBox="0 0 512 512" version="1.1" xmlns="http://www.w3.org/2000/svg" xmlns:xlink="http://www.w3.org/1999/xlink" xml:space="preserve" xmlns:serif="http://www.serif.com/" style="fill-rule:evenodd;clip-rule:evenodd;stroke-linejoin:round;stroke-miterlimit:2;">
    <g transform="matrix(0.752237,0,0,0.752237,-416.642718,-3489.414794)">
        <g transform="matrix(1,0,0,1,220.610438,3911.473215)">
            <g>
                <g transform="matrix(8.126266,0,0,6.785251,-2692.146919,32.057166)">
                    <g transform="matrix(1,0,0,1,4.92231,0)">
                        <path d="M376.318,181.231C379.969,181.231 382.737,177.916 382.737,173.601C382.737,169.286 379.969,165.971 376.318,165.971C372.667,165.971 369.899,169.286 369.899,173.601C369.899,177.916 372.667,181.231 376.318,181.231ZM376.318,177.345C374.767,177.345 373.67,175.773 373.67,173.601C373.67,171.429 374.767,169.858 376.318,169.858C377.869,169.858 378.967,171.429 378.967,173.601C378.967,175.773 377.869,177.345 376.318,177.345Z" style="fill:rgb(69,73,57);fill-rule:nonzero;"/>
                    </g>
                    <g transform="matrix(1,0,0,1,3.691732,0)">
                        <path d="M390.659,163.971C391.995,163.971 393.093,162.656 393.093,161.056C393.093,159.455 391.995,158.141 390.659,158.141C389.323,158.141 388.225,159.455 388.225,161.056C388.225,162.656 389.323,163.971 390.659,163.971ZM393.904,181.231C394.954,181.231 396.266,180.889 396.791,180.574L396.791,176.83C396.004,177.231 395.384,177.345 394.692,177.345C393.212,177.345 392.592,176.63 392.592,174.973L392.592,166.2L384.479,166.2L384.479,169.772L388.726,169.772L388.726,175.459C388.726,179.288 390.492,181.231 393.904,181.231Z" style="fill:rgb(69,73,57);fill-rule:nonzero;"/>
                    </g>
                    <g transform="matrix(1,0,0,1,2.584213,0)">
                        <path d="M399.201,180.946L403.067,180.946L403.067,170.486C403.568,169.886 404.165,169.6 404.881,169.6C406.121,169.6 406.933,170.686 406.933,172.344L406.933,180.946L410.798,180.946L410.798,171.001C410.798,168.057 409.104,165.971 406.718,165.971C405.238,165.971 403.998,166.743 403.067,168.2L403.067,159.884L399.201,160.598L399.201,180.946Z" style="fill:rgb(69,73,57);fill-rule:nonzero;"/>
                    </g>
                    <g transform="matrix(1,0,0,1,1.845866,0)">
                        <path d="M417.479,181.174C418.792,181.174 419.794,180.688 420.892,179.545L420.892,180.946L424.71,180.946L424.71,171.515C424.71,168 422.729,165.971 419.317,165.971C417.503,165.971 415.666,166.485 413.614,167.571L414.998,170.858C416.43,170.143 417.527,169.772 418.458,169.772C420.104,169.772 420.892,170.486 420.892,171.915L420.892,173.173C419.794,172.658 418.911,172.43 418.028,172.43C414.998,172.43 413.232,174.001 413.232,176.716C413.232,179.345 414.974,181.174 417.479,181.174ZM416.787,176.63C416.787,175.687 417.527,175.173 418.768,175.173C419.46,175.173 420.176,175.316 420.892,175.545L420.892,177.288C420.247,177.831 419.484,178.116 418.673,178.116C417.503,178.116 416.787,177.574 416.787,176.63Z" style="fill:rgb(69,73,57);fill-rule:nonzero;"/>
                    </g>
                    <g transform="matrix(1,0,0,1,0.984462,0)">
                        <path d="M427.835,180.946L431.701,180.946L431.701,170.486C432.202,169.886 432.799,169.6 433.514,169.6C434.755,169.6 435.567,170.686 435.567,172.344L435.567,180.946L439.432,180.946L439.432,171.001C439.432,168.057 437.738,165.971 435.352,165.971C433.872,165.971 432.632,166.743 431.701,168.2L431.701,166.2L427.835,166.2L427.835,180.946Z" style="fill:rgb(69,73,57);fill-rule:nonzero;"/>
                    </g>
                    <path d="M446.113,181.174C447.426,181.174 448.428,180.688 449.526,179.545L449.526,180.946L453.343,180.946L453.343,171.515C453.343,168 451.363,165.971 447.951,165.971C446.137,165.971 444.3,166.485 442.248,167.571L443.632,170.858C445.063,170.143 446.161,169.772 447.092,169.772C448.738,169.772 449.526,170.486 449.526,171.915L449.526,173.173C448.428,172.658 447.545,172.43 446.662,172.43C443.632,172.43 441.866,174.001 441.866,176.716C441.866,179.345 443.608,181.174 446.113,181.174ZM445.421,176.63C445.421,175.687 446.161,175.173 447.402,175.173C448.094,175.173 448.81,175.316 449.526,175.545L449.526,177.288C448.881,177.831 448.118,178.116 447.306,178.116C446.137,178.116 445.421,177.574 445.421,176.63Z" style="fill:rgb(69,73,57);fill-rule:nonzero;"/>
                </g>
                <g transform="matrix(2.431305,0,0,2.332835,-181.334951,906.000371)">
                    <path d="M370.777,180.946L375.22,180.946L375.22,170.486C375.795,169.886 376.481,169.6 377.303,169.6C378.729,169.6 379.662,170.686 379.662,172.344L379.662,180.946L384.104,180.946L384.104,171.001C384.104,168.057 382.157,165.971 379.415,165.971C377.715,165.971 376.289,166.743 375.22,168.2L375.22,166.2L370.777,166.2L370.777,180.946Z" style="fill:rgb(69,73,57);fill-rule:nonzero;"/>
                    <path d="M394.249,181.231C396.689,181.231 398.581,180.574 400.364,178.774L397.512,176.116C396.799,177.031 395.757,177.545 394.468,177.545C392.796,177.545 391.452,176.43 391.014,174.773L401.159,174.773L401.159,173.773C401.159,169.2 398.17,165.971 393.92,165.971C389.78,165.971 386.654,169.286 386.654,173.601C386.654,177.888 389.999,181.231 394.249,181.231ZM391.041,172.144C391.452,170.515 392.549,169.572 394.057,169.572C395.565,169.572 396.662,170.515 397.046,172.144L391.041,172.144Z" style="fill:rgb(69,73,57);fill-rule:nonzero;"/>
                    <path d="M402.448,180.946L407.356,180.946L410.18,176.716L412.977,180.946L418.132,180.946L412.813,173.573L418.05,166.2L413.114,166.2L410.372,170.315L407.658,166.2L402.53,166.2L407.712,173.487L402.448,180.946Z" style="fill:rgb(69,73,57);fill-rule:nonzero;"/>
                    <path d="M429.429,181.231C430.636,181.231 432.226,180.946 433.323,180.631L433.323,176.888C431.924,177.288 431.102,177.345 430.307,177.345C428.524,177.345 427.894,176.688 427.894,174.83L427.894,169.772L433.24,169.772L433.24,166.2L427.894,166.2L427.894,161.17L423.452,162.113L423.452,166.2L419.311,166.2L419.311,169.772L423.452,169.772L423.452,175.745C423.452,179.374 425.481,181.231 429.429,181.231Z" style="fill:rgb(69,73,57);fill-rule:nonzero;"/>
                    <rect x="438.149" y="170.829" width="10.091" height="3.858" style="fill:rgb(69,73,57);fill-rule:nonzero;"/>
                    <path d="M457.617,181.174C459.317,181.174 460.743,180.403 461.812,178.945L461.812,180.946L466.254,180.946L466.254,166.2L461.812,166.2L461.812,176.659C461.236,177.259 460.551,177.545 459.728,177.545C458.302,177.545 457.37,176.459 457.37,174.801L457.37,166.2L452.928,166.2L452.928,176.145C452.928,179.088 454.875,181.174 457.617,181.174Z" style="fill:rgb(210,13,16);fill-rule:nonzero;"/>
                    <path d="M476.126,163.971C477.661,163.971 478.922,162.656 478.922,161.056C478.922,159.455 477.661,158.141 476.126,158.141C474.59,158.141 473.329,159.455 473.329,161.056C473.329,162.656 474.59,163.971 476.126,163.971ZM479.855,181.231C481.061,181.231 482.569,180.889 483.173,180.574L483.173,176.83C482.268,177.231 481.555,177.345 480.76,177.345C479.06,177.345 478.347,176.63 478.347,174.973L478.347,166.2L469.024,166.2L469.024,169.772L473.905,169.772L473.905,175.459C473.905,179.288 475.934,181.231 479.855,181.231Z" style="fill:rgb(210,13,16);fill-rule:nonzero;"/>
                </g>
            </g>
        </g>
        <g transform="matrix(0.9781,0,0,0.9781,768.993053,4717.814812)">
            <path d="M119.617,0.069C119.066,0.119 117.315,0.294 115.738,0.419C79.378,3.697 45.319,23.313 23.748,53.463C11.736,70.227 4.054,89.243 1.151,109.385C0.125,116.415 0,118.492 0,128.025C0,137.558 0.125,139.635 1.151,146.666C8.108,194.73 42.316,235.114 88.712,250.076C97.02,252.754 105.778,254.58 115.738,255.681C119.617,256.106 136.383,256.106 140.262,255.681C157.454,253.779 172.018,249.526 186.382,242.195C188.584,241.069 189.01,240.769 188.709,240.518C188.509,240.368 179.125,227.783 167.864,212.57L147.394,184.922L121.744,146.966C107.63,126.098 96.019,109.034 95.919,109.034C95.819,109.009 95.718,125.873 95.668,146.465C95.593,182.52 95.568,183.971 95.118,184.822C94.467,186.048 93.967,186.549 92.916,187.099C92.115,187.499 91.414,187.574 87.636,187.574L83.306,187.574L82.155,186.849C81.404,186.373 80.854,185.748 80.479,185.022L79.953,183.896L80.003,133.73L80.078,83.538L80.854,82.562C81.254,82.037 82.105,81.361 82.706,81.036C83.732,80.536 84.132,80.486 88.461,80.486C93.566,80.486 94.417,80.686 95.743,82.137C96.119,82.537 110.007,103.455 126.624,128.651C143.24,153.846 165.962,188.25 177.123,205.139L197.393,235.84L198.419,235.164C207.503,229.259 217.112,220.852 224.719,212.095C240.91,193.504 251.345,170.836 254.849,146.666C255.875,139.635 256,137.558 256,128.025C256,118.492 255.875,116.415 254.849,109.385C247.892,61.32 213.684,20.936 167.288,5.974C159.105,3.322 150.397,1.495 140.637,0.394C138.235,0.144 121.694,-0.131 119.617,0.069ZM172.018,77.483C173.219,78.084 174.195,79.235 174.545,80.436C174.746,81.086 174.796,94.998 174.746,126.349L174.671,171.336L166.738,159.176L158.78,147.016L158.78,114.314C158.78,93.171 158.88,81.286 159.03,80.711C159.431,79.31 160.307,78.209 161.508,77.558C162.534,77.033 162.909,76.983 166.838,76.983C170.542,76.983 171.192,77.033 172.018,77.483Z" style="fill:rgb(212,32,39);fill-rule:nonzero;"/>
        </g>
    </g>
</svg>
