<?xml version="1.0" encoding="UTF-8" standalone="no"?>
<!DOCTYPE svg PUBLIC "-//W3C//DTD SVG 1.1//EN" "http://www.w3.org/Graphics/SVG/1.1/DTD/svg11.dtd">
<svg width="100%" height="100%" viewBox="0 0 500 500" version="1.1" xmlns="http://www.w3.org/2000/svg" xmlns:xlink="http://www.w3.org/1999/xlink" xml:space="preserve" xmlns:serif="http://www.serif.com/" style="fill-rule:evenodd;clip-rule:evenodd;stroke-linejoin:round;stroke-miterlimit:2;">
    <g id="freepik--background-complete--inject-106">
    </g>
    <g id="freepik--Floor--inject-106">
    </g>
    <g id="freepik--Plant--inject-106">
    </g>
    <g transform="matrix(1.28471,0,0,1.28471,-44.4913,-77.928)">
        <g id="freepik--Shadow--inject-106">
            <g>
                <ellipse cx="250" cy="410.85" rx="77.9" ry="12.94" style="fill:rgb(75,71,71);fill-opacity:0.8;"/>
                <path d="M174,288.79C174,288.79 180,253.79 182.48,246.88C184.22,242.11 191.34,230.08 196.43,221.16C197.43,219.36 204.01,215 207.16,213.33C211.4,211.09 219.39,214.7 219.97,223.92C220.21,227.75 213.69,232.12 211.87,236.15C209.31,241.81 209.14,249.15 208.93,250.35C208.57,252.35 222.7,268.01 222.08,273.97C221.46,279.93 205.08,300.38 201.53,301.56C197.98,302.74 174.11,294.56 174,288.79Z" style="fill:rgb(255,199,39);fill-rule:nonzero;"/>
                <path d="M203.11,228.47C206.3,230.82 211.4,232.22 214.11,232.86C216.68,229.81 220.11,226.73 219.94,223.92C219.36,214.7 211.38,211.09 207.14,213.33C204.19,214.958 201.372,216.814 198.71,218.88C196.048,220.946 198.57,225.13 203.11,228.47Z" style="fill:rgb(235,235,235);fill-rule:nonzero;"/>
                <path d="M216.35,215.53C216.41,215.53 216.48,215.59 216.43,215.64C215.01,216.97 213.64,218.37 212.35,219.84C211.07,221.06 210.224,222.665 209.94,224.41C209.927,224.446 209.893,224.47 209.855,224.47C209.817,224.47 209.783,224.446 209.77,224.41C209.714,222.592 210.244,220.804 211.28,219.31C212.55,217.54 214.49,216.55 216.35,215.53Z" style="fill:rgb(38,50,56);fill-rule:nonzero;"/>
                <path d="M212,212.31C212.011,212.301 212.025,212.296 212.04,212.296C212.075,212.296 212.104,212.325 212.104,212.36C212.104,212.379 212.095,212.398 212.08,212.41C210.759,213.745 209.523,215.161 208.38,216.65C207.38,217.9 205.65,219.74 206.38,221.46C206.5,221.76 206.38,221.79 206.15,221.53C205.07,219.91 206.15,217.84 207.15,216.46C208.431,214.727 210.089,213.307 212,212.31Z" style="fill:rgb(38,50,56);fill-rule:nonzero;"/>
                <path d="M201.56,301.56C205.11,300.38 221.48,279.93 222.1,273.97C222.57,269.42 214.45,259.24 210.74,253.77L180.01,256.77C177.29,269.53 174.01,288.77 174.01,288.77C174.11,294.56 198,302.73 201.56,301.56Z" style="fill-opacity:0.1;fill-rule:nonzero;"/>
                <path d="M116.34,301.48C116.34,301.48 86.51,298.81 85.45,300.94C84.75,302.33 91.33,320.1 95.07,325.99C98.81,331.88 122.84,354.53 129.19,359.52L116.34,301.48Z" style="fill:rgb(255,199,39);fill-rule:nonzero;"/>
                <path d="M104.18,325.76C106.72,329.76 118.48,340.94 126.63,347.94L117,304.49C109.54,303.49 94.23,301.69 93.59,303.15C93,304.41 100.59,320.11 104.18,325.76Z" style="fill-opacity:0.1;fill-rule:nonzero;"/>
                <path d="M145,268.94C145,268.2 138.41,246.62 148.17,233.19C149.97,230.7 182.81,261.13 182.81,261.13L145,268.94Z" style="fill:rgb(255,199,39);fill-rule:nonzero;"/>
                <path d="M151.19,267.65L181.48,261.4C178.32,258.48 155.19,237.26 153.82,239.13C146.5,249.21 150.57,265 151.19,267.65Z" style="fill-opacity:0.1;fill-rule:nonzero;"/>
                <path d="M235.91,301.29C235.91,301.29 225.28,273.02 206.91,259.37C204.62,257.68 160.37,259.19 151.57,261.37C149.07,261.99 120.17,288.25 111.92,305.19C110.5,308 117.2,339.09 128,357.62C130.67,362.21 178.65,403.54 210,410.53C215.92,411.85 290.86,409.53 308.86,397.07C326.86,384.61 358.26,339.56 360.18,326.97C362.1,314.38 317.3,276.31 302.07,276.31C286.84,276.31 235.91,301.29 235.91,301.29Z" style="fill:rgb(255,199,39);fill-rule:nonzero;"/>
                <path d="M167.91,267.54C171.52,262.11 178.75,262.98 185.09,267.19C190.21,270.6 193.31,277.3 189.85,282.51C186.39,287.72 178.09,286.85 173.27,283.65C168.45,280.45 164,273.43 167.91,267.54Z" style="fill:rgb(38,50,56);fill-rule:nonzero;"/>
                <path d="M168.89,268.94C172.28,263.84 179.08,264.66 185.04,268.61C189.86,271.82 192.77,278.12 189.51,283.02C186.25,287.92 178.51,287.1 173.93,284.09C169.35,281.08 165.21,274.48 168.89,268.94Z" style="fill:white;fill-rule:nonzero;"/>
                <path d="M173.78,271C176.43,267 181.78,267.65 186.42,270.75C190.19,273.26 192.47,278.19 189.92,282.02C187.37,285.85 181.27,285.22 177.72,282.86C174.17,280.5 170.89,275.31 173.78,271Z" style="fill:rgb(38,50,56);fill-rule:nonzero;"/>
                <path d="M170,272.4C171.21,270.59 173.63,270.88 175.74,272.29C177.46,273.42 178.49,275.66 177.33,277.41C176.17,279.16 173.4,278.86 171.8,277.79C170.2,276.72 168.65,274.37 170,272.4Z" style="fill:white;fill-rule:nonzero;"/>
                <path d="M143.67,305.45C137.44,311.21 138.73,318.88 143.9,324.45C146.298,326.934 149.606,328.339 153.059,328.339C156.414,328.339 159.637,327.012 162.02,324.65C168.02,319.12 166.67,310.27 162.74,306.03C160.212,303.29 156.649,301.729 152.921,301.729C149.474,301.729 146.157,303.063 143.67,305.45Z" style="fill:rgb(38,50,56);fill-rule:nonzero;"/>
                <path d="M145.35,306.06C139.5,311.48 140.71,318.69 145.56,323.94C147.817,326.254 150.917,327.56 154.15,327.56C157.295,327.56 160.317,326.324 162.56,324.12C168.18,318.92 166.93,310.61 163.24,306.62C160.861,304.056 157.516,302.597 154.018,302.597C150.793,302.597 147.688,303.837 145.35,306.06Z" style="fill:white;fill-rule:nonzero;"/>
                <path d="M150,308.33C145.41,312.57 146.36,318.21 150.16,322.33C151.923,324.159 154.358,325.194 156.899,325.194C159.372,325.194 161.747,324.214 163.5,322.47C167.89,318.4 166.92,311.9 164.03,308.77C162.168,306.752 159.544,305.603 156.799,305.603C154.267,305.603 151.83,306.581 150,308.33Z" style="fill:rgb(38,50,56);fill-rule:nonzero;"/>
                <path d="M144.81,311.15C142.73,313.07 143.16,315.63 144.88,317.5C145.682,318.328 146.787,318.796 147.94,318.796C149.063,318.796 150.142,318.351 150.94,317.56C152.643,315.886 152.749,313.14 151.18,311.34C150.334,310.428 149.145,309.909 147.902,309.909C146.75,309.909 145.642,310.354 144.81,311.15Z" style="fill:white;fill-rule:nonzero;"/>
                <path d="M168.93,296.52C169.55,296.88 174.18,295.04 174.47,294.65C174.76,294.26 175.25,289.24 174.75,288.72C174.25,288.2 171.68,291.23 171.08,292.04C170.48,292.85 168.32,296.18 168.93,296.52Z" style="fill:rgb(38,50,56);fill-rule:nonzero;"/>
                <path d="M180.66,289.19C181.054,290.332 181.388,291.493 181.66,292.67C181.796,293.23 181.867,293.804 181.87,294.38C181.881,294.598 181.825,294.815 181.71,295C181.561,295.139 181.378,295.235 181.18,295.28C180.651,295.376 180.109,295.376 179.58,295.28C179.006,295.195 178.438,295.071 177.88,294.91C176.745,294.588 175.632,294.191 174.55,293.72L172.55,292.86L173.76,294.65C174.568,295.845 175.273,297.106 175.87,298.42C176.164,299.064 176.399,299.733 176.57,300.42C176.751,301.034 176.751,301.686 176.57,302.3L176.47,302.49L176.36,302.66C176.25,302.77 176.14,302.88 176.02,302.98C175.76,303.194 175.47,303.369 175.16,303.5C174.519,303.768 173.847,303.953 173.16,304.05C171.699,304.252 170.221,304.299 168.75,304.19C170.213,304.537 171.717,304.685 173.22,304.63C173.992,304.601 174.757,304.463 175.49,304.22C176.331,303.997 177.05,303.45 177.49,302.7C177.819,301.913 177.892,301.041 177.7,300.21C177.541,299.452 177.306,298.712 177,298C176.408,296.603 175.688,295.264 174.85,294L174.08,294.93C175.228,295.413 176.412,295.807 177.62,296.11C178.235,296.256 178.86,296.356 179.49,296.41C180.163,296.487 180.844,296.422 181.49,296.22C181.89,296.106 182.242,295.864 182.49,295.53C182.681,295.186 182.758,294.79 182.71,294.4C182.648,293.767 182.504,293.145 182.28,292.55C181.845,291.383 181.302,290.258 180.66,289.19Z" style="fill:rgb(38,50,56);fill-rule:nonzero;"/>
                <path d="M190.77,268.57C192.77,265.61 194.843,262.71 196.99,259.87C199.14,257.04 201.32,254.22 203.63,251.51C204.75,250.13 205.92,248.79 207.08,247.44C208.24,246.09 209.45,244.78 210.66,243.44C213.05,240.8 215.58,238.29 218.09,235.74C216.74,236.92 215.38,238.08 214.09,239.3C212.8,240.52 211.51,241.77 210.27,243.06C207.76,245.6 205.4,248.29 203.09,251.06C200.78,253.83 198.62,256.64 196.55,259.56C195.523,261.02 194.523,262.497 193.55,263.99C192.58,265.49 191.63,267 190.77,268.57Z" style="fill:rgb(38,50,56);fill-rule:nonzero;"/>
                <path d="M193.29,268.71C194.35,267.5 195.4,266.28 196.48,265.09C197.56,263.9 198.62,262.7 199.71,261.52C201.89,259.16 204.08,256.81 206.35,254.52C207.45,253.36 208.6,252.23 209.73,251.1L213.21,247.76L214.96,246.11L216.74,244.49C217.9,243.38 219.15,242.37 220.33,241.27C217.75,243.19 215.23,245.21 212.83,247.36C210.43,249.51 208.1,251.73 205.83,254.02C203.56,256.31 201.39,258.68 199.3,261.13C197.21,263.58 195.17,266.1 193.29,268.71Z" style="fill:rgb(38,50,56);fill-rule:nonzero;"/>
                <path d="M194.31,270.68C195.31,269.78 196.31,268.88 197.31,268C198.31,267.12 199.31,266.22 200.31,265.36C202.31,263.62 204.38,261.88 206.46,260.2C208.54,258.52 210.61,256.82 212.71,255.2C214.81,253.58 216.95,251.92 219.06,250.26C217.92,250.97 216.79,251.7 215.67,252.44C214.55,253.18 213.46,253.96 212.38,254.75C210.19,256.31 208.08,257.98 206,259.67C203.92,261.36 201.9,263.14 199.95,264.98C198,266.82 196.09,268.67 194.31,270.68Z" style="fill:rgb(38,50,56);fill-rule:nonzero;"/>
                <path d="M149.42,335.7C147.89,337.3 146.42,338.99 145.02,340.7C143.62,342.41 142.23,344.14 140.88,345.9C138.18,349.41 135.63,353.05 133.19,356.75C130.75,360.45 128.47,364.25 126.35,368.15C125.28,370.08 124.27,372.06 123.27,374.04C122.77,375.04 122.27,376.04 121.85,377.04L120.47,380.04C122.54,376.12 124.58,372.2 126.84,368.4C127.94,366.48 129.08,364.59 130.22,362.7C131.36,360.81 132.56,358.95 133.79,357.12C136.17,353.4 138.72,349.78 141.32,346.21C143.92,342.64 146.6,339.11 149.42,335.7Z" style="fill:rgb(38,50,56);fill-rule:nonzero;"/>
                <path d="M150.51,338.64C148.12,341.84 145.91,345.17 143.78,348.55C141.65,351.93 139.67,355.4 137.78,358.9C135.89,362.4 134,366 132.37,369.61C130.74,373.22 129.19,376.94 127.82,380.69C128.67,378.88 129.41,377.03 130.3,375.24L131.55,372.53L132.87,369.85C133.74,368.06 134.65,366.28 135.55,364.51C136.45,362.74 137.4,360.98 138.37,359.24C140.24,355.72 142.23,352.24 144.25,348.84C145.257,347.12 146.287,345.41 147.34,343.71C148.37,342 149.44,340.32 150.51,338.64Z" style="fill:rgb(38,50,56);fill-rule:nonzero;"/>
                <path d="M153.21,339.13C151.5,342 150,345 148.53,348C147.06,351 145.75,354.05 144.46,357.12C143.17,360.19 142,363.31 140.93,366.46C140.38,368.03 139.88,369.62 139.36,371.2C138.84,372.78 138.42,374.39 137.97,376C139.14,372.88 140.25,369.75 141.45,366.65C142.65,363.55 143.84,360.46 145.12,357.39C146.4,354.32 147.7,351.27 149.03,348.23C149.697,346.71 150.383,345.197 151.09,343.69C151.77,342.13 152.49,340.63 153.21,339.13Z" style="fill:rgb(38,50,56);fill-rule:nonzero;"/>
                <path d="M178.62,320C180.34,319.1 182.08,318.33 183.78,317.55C184.62,317.13 185.49,316.78 186.29,316.34C187.055,315.967 187.779,315.514 188.45,314.99C189.007,314.414 189.445,313.735 189.74,312.99C190.14,312.18 190.44,311.31 190.74,310.44C191.39,308.69 192.01,306.9 192.74,305.11C192.805,307.047 192.634,308.985 192.23,310.88C192.033,311.845 191.766,312.794 191.43,313.72C191.093,314.766 190.51,315.716 189.73,316.49C188.917,317.152 188.006,317.685 187.03,318.07C184.331,319.173 181.47,319.832 178.56,320.02L178.62,320Z" style="fill-opacity:0.1;fill-rule:nonzero;"/>
                <path d="M358.92,331.24C368.25,312.16 378.66,283.74 369.53,261.96C360.4,240.18 311.08,204 303.46,182.31C295.84,160.62 303.66,149.56 296.8,148.31C293.29,147.65 285.7,166.21 289.41,184.46C294.48,209.36 345.27,254.86 351.41,269.1C357.55,283.34 351.07,295.45 342.88,307.91L358.92,331.24Z" style="fill:rgb(255,199,39);fill-rule:nonzero;"/>
                <path d="M263.74,265.25C261.887,265.145 260.418,263.592 260.418,261.736C260.418,261.346 260.483,260.959 260.61,260.59C260.66,260.44 265.72,245.69 266.07,221.35C266.28,206.77 258.62,200.69 250.52,194.25C243,188.25 235.22,182.1 235.82,169.52C236.3,159.47 243.48,154.81 249.82,150.71C256.16,146.61 261.91,142.87 263.19,134.2C266,115.38 249.12,97.76 249,97.59C248.423,96.948 248.104,96.114 248.104,95.251C248.104,93.331 249.684,91.751 251.604,91.751C252.494,91.751 253.351,92.091 254,92.7C254.79,93.52 273.45,112.95 270.14,135.23C268.38,147.02 260.21,152.32 253.65,156.58C247.09,160.84 243.13,163.7 242.84,169.86C242.41,178.86 247.93,183.23 254.9,188.77C263.13,195.3 273.36,203.43 273.1,221.45C272.73,247.04 267.46,262.28 267.24,262.91C266.721,264.374 265.292,265.33 263.74,265.25Z" style="fill:rgb(69,90,100);fill-rule:nonzero;"/>
                <path d="M254.08,373.2C259.21,373.2 260.66,369.74 260.66,369.74C260.66,369.74 263.14,373.74 267.33,372.49C271.52,371.24 271.03,366.12 271.03,366.12C271.03,366.12 273.53,369.48 278.03,367.27C281.66,365.5 279.75,360.03 279.75,360.03C282.002,362.157 285.453,362.448 288.03,360.73C290.03,359.54 289.79,355.73 290.12,355.53C301.23,347 323.73,329.07 312.81,284.8C304.51,251.15 272.03,240.59 243.81,242C243.38,242 243.15,239.71 240.1,239.71C238.589,239.566 237.128,240.333 236.39,241.66C235.132,240.207 233.008,239.834 231.33,240.77C229.502,241.63 228.501,243.656 228.93,245.63C227.81,245.03 226.01,242.17 221.93,243.77C217.85,245.37 218.59,249.77 218.59,249.77C216.793,248.485 214.382,248.421 212.52,249.61C211.63,250.13 211.39,253.9 210.99,254.54C206.08,248.83 203.31,255.41 204.45,257.44C205.99,260.19 202.16,261.93 201.45,262.65C184.08,279.93 179.03,316.21 191.84,339.19C208.19,368.53 234.37,371.19 248.74,370.43C248.65,370.4 250,373.2 254.08,373.2Z" style="fill:rgb(69,90,100);fill-rule:nonzero;"/>
                <path d="M270.22,354.52C253.66,346.04 243.35,328.08 237.31,311.1C230.911,293.041 229.22,273.644 232.4,254.75C232.64,253.33 230.47,252.75 230.23,254.15C226.839,274.07 228.757,294.537 235.79,313.48C242.13,330.38 252.52,347.97 269.08,356.48C270.37,357.13 271.51,355.18 270.22,354.52Z" style="fill:rgb(55,71,79);fill-rule:nonzero;"/>
                <path d="M250.62,360.31C223.066,335.511 208.958,298.982 212.69,262.1C212.84,260.66 210.58,260.67 210.44,262.1C206.691,299.577 221.026,336.68 249,361.9C250.1,362.87 251.69,361.28 250.62,360.31Z" style="fill:rgb(55,71,79);fill-rule:nonzero;"/>
                <path d="M290.28,356C308.28,345.49 314.28,324.56 314.49,304.73C314.507,304.326 314.277,303.95 313.91,303.78C314.531,302.766 315.037,301.686 315.42,300.56C315.89,299.19 313.72,298.56 313.25,299.96C311.26,306.142 304.946,309.948 298.55,308.82C298.49,308.815 298.43,308.815 298.37,308.82C298.691,307.201 298.921,305.565 299.06,303.92C299.149,303.937 299.241,303.937 299.33,303.92C306.048,303.643 311.975,299.348 314.33,293.05C314.378,292.935 314.403,292.812 314.403,292.687C314.403,292.2 314.025,291.79 313.54,291.75C313.527,291.653 313.5,291.559 313.46,291.47C313.446,291.442 313.429,291.415 313.41,291.39C313.688,291.138 313.82,290.761 313.76,290.39C310,268 292.63,256.12 272.44,249.88L272.81,249.66C273.155,249.459 273.368,249.089 273.368,248.69C273.368,248.074 272.861,247.567 272.245,247.567C272.047,247.567 271.852,247.62 271.68,247.72C270.82,248.2 269.98,248.72 269.13,249.22L269.01,249.3C260.077,254.704 251.99,261.396 245.01,269.16C244.788,269.28 244.612,269.47 244.51,269.7C243.05,271.34 241.62,273.01 240.26,274.75C240.2,272.69 240.2,270.62 240.26,268.55C240.626,268.54 240.964,268.349 241.16,268.04C247.606,258.466 256.569,250.852 267.06,246.04C268.38,245.43 267.24,243.49 265.93,244.04C255.772,248.722 246.999,255.958 240.47,265.04C240.947,259.203 242.006,253.427 243.63,247.8C243.642,247.732 243.649,247.664 243.649,247.595C243.649,246.975 243.139,246.465 242.519,246.465C242.048,246.465 241.624,246.759 241.46,247.2C229.71,288.12 248.21,329.78 281.94,354.09C283.12,354.94 284.24,352.99 283.08,352.15L282.67,351.84C299.76,344.715 310.539,327.453 309.44,308.97C309.433,308.783 309.378,308.6 309.28,308.44C310.353,307.724 311.331,306.873 312.19,305.91C311.71,324.91 305.81,344.81 288.02,354.5C287.885,354.572 287.766,354.671 287.67,354.79L285.67,354.43C284.25,354.17 283.67,356.34 285.07,356.6L288.87,357.3C288.941,357.313 289.014,357.32 289.086,357.32C289.744,357.32 290.286,356.778 290.286,356.12C290.286,356.08 290.284,356.04 290.28,356ZM269.83,251.5C288.83,256.98 305.5,267.16 310.69,286.74C300.45,270.56 283.01,255.74 263.44,255.68C265.51,254.16 267.65,252.78 269.83,251.45L269.83,251.5ZM260.32,258C280.08,256.45 297.79,271 308.26,287.08C294.975,271.373 275.361,262.372 254.79,262.54C256.57,261 258.43,259.45 260.32,258ZM248.24,268.86C249.6,267.42 251.01,266.04 252.44,264.69C252.602,264.778 252.786,264.82 252.97,264.81C276.18,263.998 298.223,275.279 311.14,294.58C311.04,294.75 310.95,294.93 310.84,295.1C294.998,277.385 271.979,267.733 248.24,268.85L248.24,268.86ZM240.62,281L243.8,280.9C245.25,280.85 245.25,278.6 243.8,278.65L240.45,278.76C240.45,278.33 240.37,277.9 240.35,277.47C240.717,277.471 241.063,277.296 241.28,277C242.81,275 244.43,273.09 246.09,271.22C270.045,269.41 293.515,278.922 309.45,296.9C308.674,297.758 307.798,298.52 306.84,299.17C306.792,299.07 306.724,298.982 306.64,298.91C290.221,285.15 269.28,277.935 247.87,278.66C246.42,278.66 246.42,280.96 247.87,280.91C268.586,280.177 288.864,287.088 304.82,300.32C303.612,300.878 302.334,301.269 301.02,301.48C300.96,301.192 300.782,300.942 300.53,300.79C282.912,289.342 262.071,283.857 241.1,285.15C240.91,283.78 240.75,282.4 240.62,281ZM292.27,319.17C291.484,320.592 290.602,321.959 289.63,323.26C281.948,319.564 275.178,314.212 269.81,307.59C269.759,307.27 269.542,306.999 269.24,306.88C264.834,301.265 261.517,294.875 259.46,288.04C260.61,288.19 261.75,288.35 262.89,288.54L262.89,288.59C269,301.773 279.345,312.543 292.27,319.18L292.27,319.17ZM286.67,313.17C290.017,312.962 293.229,311.769 295.9,309.74C295.297,312.295 294.425,314.779 293.3,317.15C291.011,315.967 288.797,314.645 286.67,313.19L286.67,313.17ZM285.84,327C278.784,330.25 270.534,329.672 264,325.47C264.723,324.22 265.615,323.076 266.65,322.07C271.68,326.429 278.969,327.11 284.72,323.76C284.87,323.68 284.998,323.563 285.09,323.42C286.09,323.99 287.15,324.54 288.2,325.06C287.65,325.71 287.06,326.33 286.47,326.92C286.257,326.888 286.038,326.915 285.84,327ZM268.38,320.59C270.54,319.03 273.038,318.002 275.67,317.59C275.894,317.552 276.099,317.439 276.25,317.27C278.369,319.033 280.608,320.647 282.95,322.1C278.245,324.583 272.48,323.989 268.38,320.6L268.38,320.59ZM269.58,295.15C269.464,295.195 269.355,295.259 269.26,295.34C267.932,293.31 266.72,291.207 265.63,289.04C267.87,289.48 270.08,290.04 272.28,290.64C272.5,292.577 271.39,294.436 269.58,295.16L269.58,295.15ZM274.58,291.27C277.721,292.21 280.812,293.311 283.84,294.57C283.085,298.851 279.92,302.332 275.73,303.49C275.68,303.511 275.633,303.538 275.59,303.57C273.76,301.553 272.063,299.418 270.51,297.18C272.893,296.178 274.478,293.864 274.55,291.28L274.58,291.27ZM277.29,305.36C281.697,303.792 284.987,300.043 285.97,295.47C287.34,296.08 288.69,296.73 290.03,297.4L290.03,297.5C288.934,302.652 284.776,306.631 279.58,307.5C278.767,306.82 277.993,306.11 277.26,305.37L277.29,305.36ZM241.5,287.36C244.56,287.19 247.61,287.18 250.64,287.29C247.29,289.323 244.751,292.46 243.46,296.16C242.64,293.29 242,290.36 241.47,287.39L241.5,287.36ZM244.33,299.14C244.731,299.072 245.052,298.767 245.14,298.37C246.23,293.799 249.439,290.013 253.77,288.19C254.066,288.076 254.28,287.813 254.33,287.5C255.33,287.58 256.33,287.65 257.26,287.75C257.195,287.958 257.195,288.182 257.26,288.39C258.279,291.879 259.618,295.267 261.26,298.51C255.399,298.609 249.998,301.769 247.04,306.83C246,304.34 245.11,301.77 244.3,299.17L244.33,299.14ZM248.17,309.41C248.277,309.318 248.366,309.206 248.43,309.08C250.989,303.711 256.584,300.419 262.52,300.79C263.757,302.994 265.136,305.116 266.65,307.14C260.203,308.392 255.019,313.241 253.34,319.59C251.414,316.309 249.677,312.92 248.14,309.44L248.17,309.41ZM254.85,322.1C255.031,321.953 255.154,321.748 255.2,321.52C256.31,314.988 261.622,309.93 268.2,309.14C268.93,310.03 269.69,310.91 270.47,311.76C264.35,314.52 258.08,318.22 256.87,325.21C256.17,324.21 255.48,323.18 254.82,322.13L254.85,322.1ZM258.37,327.35C258.72,327.177 258.953,326.83 258.98,326.44C259.56,319.38 266.36,316.01 272.13,313.44C272.85,314.16 273.58,314.86 274.33,315.54C267.223,316.95 261.58,322.428 259.96,329.49C259.4,328.83 258.86,328.11 258.34,327.38L258.37,327.35ZM274.24,334.43C269.866,335.124 265.394,333.964 261.91,331.23C262.127,329.932 262.493,328.664 263,327.45C268.683,331.039 275.586,332.176 282.12,330.6C279.924,332.156 277.599,333.521 275.17,334.68C274.903,334.458 274.547,334.376 274.21,334.46L274.24,334.43ZM264.72,335.43C266.534,336.187 268.459,336.643 270.42,336.78C269.32,337.22 268.21,337.66 267.09,338.09C266.25,337.26 265.47,336.37 264.69,335.47L264.72,335.43ZM268.72,339.85C277.39,336.49 285.37,332.5 291.17,324.85C294.322,320.682 296.601,315.92 297.87,310.85C299.139,305.78 297.87,310.85 297.94,310.85C299.833,311.156 301.764,311.136 303.65,310.79C301.093,326.625 289.62,339.639 274.23,344.16C274.007,344.222 273.813,344.36 273.68,344.55C272,343.1 270.32,341.52 268.73,339.89L268.72,339.85ZM280.84,350.28C280.76,350.28 280.72,350.37 280.65,350.41C278.87,349.04 277.11,347.64 275.42,346.18C291.636,341.216 303.581,327.275 306,310.49C306.015,310.411 306.015,310.329 306,310.25C306.42,310.1 306.83,309.91 307.23,309.73C308.091,327.483 297.423,343.898 280.85,350.32L280.84,350.28ZM283.54,310.85C282.89,310.35 282.24,309.85 281.61,309.31C286.761,307.813 290.732,303.663 292,298.45C293.667,299.337 295.313,300.27 296.94,301.25C296.908,302.89 296.774,304.526 296.54,306.15C293.233,309.733 288.387,311.501 283.55,310.89L283.54,310.85Z" style="fill:rgb(55,71,79);fill-rule:nonzero;"/>
                <path d="M237.91,360.16C238.018,360.103 238.113,360.025 238.19,359.93C239.24,360.47 240.52,359.08 239.51,358.19C214.813,336.266 202.311,303.612 206.05,270.8C206.21,269.37 203.96,269.38 203.8,270.8C203.71,271.61 203.64,272.42 203.57,273.22C198.317,273.543 193.398,275.927 189.89,279.85C188.89,280.93 190.51,282.52 191.48,281.44C194.527,277.983 198.806,275.847 203.4,275.49C203.28,277.49 203.213,279.47 203.2,281.43C196.914,282.725 191.091,285.685 186.34,290C185.26,291 186.86,292.55 187.93,291.59C192.249,287.702 197.51,285.009 203.19,283.78C203.19,285.05 203.25,286.33 203.31,287.6C196.446,288.692 190.148,292.068 185.44,297.18C184.44,298.24 186.04,299.84 187.03,298.77C191.368,294.067 197.144,290.93 203.45,289.85C203.5,290.55 203.56,291.25 203.62,291.95C196.5,293.922 189.974,297.618 184.62,302.71C183.57,303.71 185.16,305.29 186.21,304.3C191.2,299.564 197.264,296.105 203.88,294.22C204.05,295.7 204.24,297.17 204.47,298.63C204.26,298.59 204.043,298.618 203.85,298.71C195.987,302.103 189.376,307.865 184.94,315.19C184.18,316.43 186.12,317.56 186.88,316.33C191.099,309.406 197.361,303.955 204.8,300.73C205.05,302.08 205.31,303.43 205.61,304.73C205.372,304.75 205.146,304.848 204.97,305.01C196.601,312.754 191.917,323.709 192.1,335.11C192.154,335.687 192.645,336.134 193.225,336.134C193.805,336.134 194.296,335.687 194.35,335.11C194.168,324.508 198.453,314.304 206.15,307.01C206.63,309.01 207.15,310.96 207.8,312.91C201.256,320.396 197.238,329.759 196.32,339.66C195.706,339.697 195.22,340.212 195.22,340.828C195.22,341.205 195.403,341.561 195.71,341.78C203.836,347.273 214.072,348.683 223.38,345.59C223.767,345.485 224.056,345.157 224.11,344.76C225.11,346.07 226.11,347.35 227.17,348.62C218.405,353.991 207.202,353.519 198.92,347.43C197.73,346.59 196.6,348.54 197.78,349.37C206.888,355.964 219.155,356.361 228.67,350.37C229.87,351.75 231.107,353.103 232.38,354.43C225.333,358.43 216.954,359.398 209.18,357.11C209.112,357.098 209.044,357.091 208.975,357.091C208.355,357.091 207.845,357.601 207.845,358.221C207.845,358.692 208.139,359.116 208.58,359.28C217.129,361.77 226.339,360.607 234,356.07C234.79,356.85 235.59,357.62 236.41,358.39C230.33,361.445 223.518,362.747 216.74,362.15C215.3,362.03 215.3,364.28 216.74,364.4C224.055,365.014 231.396,363.544 237.91,360.16ZM201.62,327.16C203.35,322.926 205.71,318.978 208.62,315.45C210.195,320.113 212.1,324.658 214.32,329.05C210.006,329.698 205.596,329.039 201.66,327.16L201.62,327.16ZM200.85,329.26C205.317,331.316 210.299,331.985 215.15,331.18C215.219,331.163 215.286,331.139 215.35,331.11C216.27,332.83 217.25,334.52 218.27,336.19C211.934,337.363 205.394,336.718 199.41,334.33C199.796,332.608 200.277,330.909 200.85,329.24L200.85,329.26ZM198.07,340.63C198.345,340.439 198.518,340.134 198.54,339.8C198.65,338.71 198.8,337.63 198.99,336.57C205.357,339.029 212.289,339.646 218.99,338.35C219.172,338.317 219.342,338.234 219.48,338.11C220.63,339.91 221.85,341.67 223.11,343.41C223.008,343.391 222.902,343.391 222.8,343.41C214.555,346.196 205.483,345.169 198.07,340.61L198.07,340.63Z" style="fill:rgb(55,71,79);fill-rule:nonzero;"/>
                <path d="M225.6,312C216.6,292.75 218.3,271.41 220.14,250.86C220.27,249.42 218.02,249.43 217.89,250.86C216,271.86 214.49,293.47 223.65,313.13C224.27,314.47 226.21,313.33 225.6,312Z" style="fill:rgb(55,71,79);fill-rule:nonzero;"/>
                <path d="M237.34,250.45C237.66,247.6 237.97,244.76 238.29,241.91C238.45,240.47 236.2,240.48 236.04,241.91C235.72,244.76 235.4,247.6 235.09,250.45C234.93,251.89 237.18,251.88 237.34,250.45Z" style="fill:rgb(55,71,79);fill-rule:nonzero;"/>
                <path d="M271.05,365.9C253.452,358.109 239.593,343.719 232.47,325.84C231.94,324.51 229.76,325.09 230.3,326.44C237.581,344.886 251.813,359.761 269.92,367.85C271.23,368.43 272.37,366.49 271.05,365.9Z" style="fill:rgb(55,71,79);fill-rule:nonzero;"/>
                <path d="M281.5,358.78C264.006,345.356 250.071,327.842 240.92,307.78C240.31,306.47 238.37,307.61 238.97,308.92C248.33,329.3 262.547,347.078 280.37,360.69C281.52,361.61 282.64,359.65 281.5,358.78Z" style="fill:rgb(55,71,79);fill-rule:nonzero;"/>
                <path d="M239.52,304C239.466,303.423 238.975,302.976 238.395,302.976C237.815,302.976 237.324,303.423 237.27,304C237.324,304.577 237.815,305.024 238.395,305.024C238.975,305.024 239.466,304.577 239.52,304Z" style="fill:rgb(55,71,79);fill-rule:nonzero;"/>
                <path d="M230.64,306.17C224.255,286.784 223.462,265.986 228.35,246.17C228.69,244.77 226.52,244.17 226.18,245.58C221.189,265.782 221.982,286.987 228.47,306.76C228.92,308.14 231.09,307.56 230.64,306.17Z" style="fill:rgb(55,71,79);fill-rule:nonzero;"/>
                <path d="M227.79,317.53C227.736,316.953 227.245,316.506 226.665,316.506C226.085,316.506 225.594,316.953 225.54,317.53C225.594,318.107 226.085,318.554 226.665,318.554C227.245,318.554 227.736,318.107 227.79,317.53Z" style="fill:rgb(55,71,79);fill-rule:nonzero;"/>
                <path d="M247.25,368.53C247.988,368.912 248.749,369.246 249.53,369.53C250.9,370.03 251.53,367.85 250.13,367.36C247.009,366.229 244.314,364.156 242.42,361.43C241.59,360.26 239.64,361.38 240.47,362.57C240.64,362.81 240.82,363.03 241,363.26C236.412,365.353 231.343,366.169 226.33,365.62C224.89,365.47 224.9,367.73 226.33,367.87C231.885,368.449 237.493,367.465 242.52,365.03C243.252,365.758 244.042,366.427 244.88,367.03C243.075,367.642 241.2,368.021 239.3,368.16C237.86,368.27 237.85,370.52 239.3,370.41C242.033,370.208 244.716,369.574 247.25,368.53Z" style="fill:rgb(55,71,79);fill-rule:nonzero;"/>
                <path d="M206.53,266.72C206.817,264.78 207.1,262.847 207.38,260.92C207.43,260.552 207.304,260.181 207.04,259.92C209.222,259.15 210.927,257.408 211.65,255.21C212.12,253.84 209.95,253.21 209.48,254.61C208.831,256.523 207.127,257.894 205.12,258.12C203.69,258.26 203.68,260.51 205.12,260.37L205.21,260.37C204.93,262.3 204.64,264.22 204.36,266.15C204.15,267.53 206.32,268.15 206.53,266.72Z" style="fill:rgb(55,71,79);fill-rule:nonzero;"/>
                <circle cx="250.26" cy="92.55" r="4.86" style="fill:rgb(199,199,199);"/>
                <path d="M254.6,91.58C254.6,94.246 252.406,96.44 249.74,96.44C247.074,96.44 244.88,94.246 244.88,91.58C244.88,88.914 247.074,86.72 249.74,86.72L249.75,86.72C252.411,86.72 254.6,88.909 254.6,91.57L254.6,91.58Z" style="fill:rgb(219,219,219);fill-rule:nonzero;"/>
                <path d="M192.39,344C192.39,344 210.44,313.43 215.26,307.88C218.59,304.04 230.91,297.25 238.84,290.73C240.44,289.41 243.07,283.68 246.61,283.25C251.37,282.67 258.51,292.56 255.77,301.38C253.03,310.2 239.77,318.79 238.77,320.55C237.77,322.31 245.34,341.96 242.64,347.31C239.94,352.66 217.34,365.92 213.64,365.75C209.94,365.58 190.42,349.39 192.39,344Z" style="fill:rgb(255,199,39);fill-rule:nonzero;"/>
                <path d="M245.28,302.93C247.698,304.796 250.724,305.702 253.77,305.47C254.62,304.186 255.293,302.794 255.77,301.33C258.51,292.52 251.37,282.63 246.61,283.21C243.07,283.64 240.43,289.37 238.84,290.69C238.84,290.69 239.46,298.15 245.28,302.93Z" style="fill:rgb(235,235,235);fill-rule:nonzero;"/>
                <path d="M252.59,286.24C252.601,286.233 252.614,286.229 252.627,286.229C252.665,286.229 252.697,286.261 252.697,286.299C252.697,286.31 252.695,286.32 252.69,286.33C251.56,287.92 250.5,289.56 249.53,291.25C248.511,292.712 248.001,294.47 248.08,296.25C248.067,296.286 248.033,296.31 247.995,296.31C247.957,296.31 247.923,296.286 247.91,296.25C247.499,294.479 247.66,292.623 248.37,290.95C249.27,289 251,287.6 252.59,286.24Z" style="fill:rgb(38,50,56);fill-rule:nonzero;"/>
                <path d="M248.44,283.12C248.5,283.12 248.58,283.12 248.54,283.21C247.509,284.778 246.58,286.412 245.76,288.1C245.04,289.52 243.7,291.68 244.76,293.22C244.94,293.49 244.76,293.56 244.55,293.33C243.18,291.96 243.85,289.71 244.5,288.17C245.42,286.214 246.766,284.488 248.44,283.12Z" style="fill:rgb(38,50,56);fill-rule:nonzero;"/>
                <path d="M201.26,329.23C200.774,330.538 200.2,331.811 199.54,333.04C198.92,334.28 198.22,335.47 197.54,336.65C196.86,337.83 196.09,338.99 195.3,340.12C194.51,341.25 193.7,342.37 192.81,343.47C193.163,342.113 193.656,340.796 194.28,339.54C194.885,338.287 195.553,337.066 196.28,335.88C197.01,334.7 197.76,333.54 198.59,332.43C199.397,331.297 200.29,330.227 201.26,329.23Z" style="fill:rgb(38,50,56);fill-rule:nonzero;"/>
                <path d="M241.78,348.47C239.545,351.127 237.015,353.523 234.24,355.61C231.499,357.736 228.627,359.687 225.64,361.45C222.636,363.196 219.515,364.733 216.3,366.05C213.089,367.363 209.761,368.367 206.36,369.05C209.5,367.57 212.62,366.17 215.66,364.62C218.7,363.07 221.66,361.45 224.66,359.71C227.66,357.97 230.49,356.19 233.36,354.33C236.23,352.47 239.05,350.58 241.78,348.47Z" style="fill:rgb(38,50,56);fill-rule:nonzero;"/>
                <path d="M221.53,362.6C221.039,363.489 220.456,364.324 219.79,365.09C219.138,365.865 218.433,366.593 217.68,367.27C216.192,368.662 214.455,369.761 212.56,370.51C213.31,369.81 214.06,369.17 214.8,368.51C215.54,367.85 216.29,367.2 217.01,366.51C218.5,365.21 219.94,363.87 221.53,362.6Z" style="fill:rgb(38,50,56);fill-rule:nonzero;"/>
                <path d="M290.25,365.78C290.25,365.78 256.95,318.11 266.81,298.37C274.08,283.83 309.3,263.24 309.3,263.24C309.3,263.24 292.68,241.71 292.46,237.34C292.24,232.97 303.23,232.78 309.14,234.21C315.05,235.64 339.14,264.95 339.47,268.63C339.8,272.31 331.71,285.63 332.82,291.35C333.93,297.07 342.36,303.68 342.94,304.66C343.52,305.64 349.07,329.66 344.11,337.58C339.15,345.5 297.39,369.51 290.25,365.78Z" style="fill:rgb(255,199,39);fill-rule:nonzero;"/>
                <path d="M301.49,252.74C310.74,253.81 315.81,243.62 317.21,240.28C313.84,237.01 310.86,234.62 309.13,234.2C303.24,232.78 292.24,232.97 292.46,237.34C292.6,240.05 297.66,247.48 301.49,252.74Z" style="fill:rgb(235,235,235);fill-rule:nonzero;"/>
                <path d="M299.66,233.17C299.671,233.143 299.696,233.126 299.725,233.126C299.754,233.126 299.779,233.143 299.79,233.17C300.09,235.17 300.47,237.22 300.95,239.17C301.227,241.007 302.098,242.704 303.43,244C303.446,244.017 303.455,244.039 303.455,244.062C303.455,244.111 303.414,244.152 303.365,244.152C303.349,244.152 303.334,244.148 303.32,244.14C301.728,243.092 300.509,241.565 299.84,239.78C299.1,237.65 299.42,235.38 299.66,233.17Z" style="fill:rgb(38,50,56);fill-rule:nonzero;"/>
                <path d="M294.25,233.8C294.25,233.762 294.282,233.73 294.32,233.73C294.358,233.73 294.39,233.762 294.39,233.8C294.735,235.74 295.209,237.654 295.81,239.53C296.28,241.13 296.81,243.74 298.72,244.17C299.05,244.24 298.98,244.41 298.64,244.4C296.64,244.35 295.49,242.16 294.87,240.51C294.16,238.349 293.948,236.055 294.25,233.8Z" style="fill:rgb(38,50,56);fill-rule:nonzero;"/>
                <path d="M268.67,325.84C270.9,329.97 273.06,334.12 275.22,338.27C277.38,342.42 279.53,346.56 281.75,350.66C283.97,354.76 286.2,358.86 288.5,362.92C290.8,366.98 293.22,370.92 295.72,374.92C292.591,371.405 289.733,367.657 287.17,363.71C284.58,359.78 282.23,355.71 279.99,351.58C277.75,347.45 275.71,343.21 273.82,338.92C271.93,334.63 270.14,330.3 268.67,325.84Z" style="fill:rgb(38,50,56);fill-rule:nonzero;"/>
                <path d="M333.6,293.63C336.124,296.698 338.815,299.626 341.66,302.4C342.02,302.73 342.38,303.06 342.75,303.4C343.174,303.733 343.571,304.097 343.94,304.49C344.63,305.392 345.118,306.432 345.37,307.54C345.854,309.544 346.145,311.59 346.24,313.65C346.407,317.676 346.294,321.709 345.9,325.72C345.544,329.716 344.947,333.687 344.11,337.61C344.11,333.61 344.26,329.61 344.34,325.61C344.42,321.61 344.47,317.61 344.24,313.74C344.183,311.806 343.949,309.881 343.54,307.99C343.393,307.131 343.073,306.311 342.6,305.58C342.285,305.229 341.951,304.895 341.6,304.58C341.24,304.22 340.88,303.85 340.54,303.48C337.84,300.487 335.509,297.18 333.6,293.63Z" style="fill:rgb(38,50,56);fill-rule:nonzero;"/>
                <path d="M285.35,359.18C286.263,361.018 287.052,362.916 287.71,364.86C288.37,366.79 288.99,368.72 289.48,370.74C288.323,369.024 287.407,367.156 286.76,365.19C286.069,363.245 285.596,361.229 285.35,359.18Z" style="fill:rgb(38,50,56);fill-rule:nonzero;"/>
                <path d="M345.25,322.75C346.216,324.008 346.981,325.408 347.52,326.9C347.797,327.645 348.014,328.411 348.17,329.19C348.355,329.976 348.396,330.789 348.29,331.59C348.01,330.83 347.71,330.13 347.42,329.41C347.13,328.69 346.86,327.97 346.58,327.25C346.015,325.789 345.571,324.284 345.25,322.75Z" style="fill:rgb(38,50,56);fill-rule:nonzero;"/>
            </g>
        </g>
    </g>
    <g id="freepik--Texts--inject-106">
    </g>
    <g id="freepik--Cat--inject-106">
    </g>
</svg>
